<svg xmlns="http://www.w3.org/2000/svg" width="600" height="340" viewBox="0 0 600 340" role="img" aria-labelledby="title desc"><title id="title">Kiinteistöpito</title><desc id="desc">A house beside a search box and a timeline of repairs, service and scanned documents.</desc><rect width="600" height="340" rx="20" fill="#071d41"/><g font-family="Arial,Helvetica,sans-serif"><text x="32" y="44" fill="#9acbff" font-size="14" letter-spacing="2.5">06 / MOBILE APP</text><text x="32" y="86" fill="#ffffff" font-size="32" font-weight="700">Kiinteistöpito</text><text x="32" y="116" fill="#ccddf2" font-size="18">A searchable maintenance history for your home.</text><rect x="32" y="140" width="536" height="168" rx="14" fill="#102e56" stroke="#35587e"/><path d="M62 232 L112 190 L162 232 V284 H62 Z" fill="#194479" stroke="#b8dcff" stroke-width="2" stroke-linejoin="round"/><rect x="100" y="250" width="24" height="34" fill="#70afff"/><rect x="196" y="158" width="352" height="34" rx="17" fill="#194479" stroke="#35587e"/><circle cx="218" cy="174" r="7" stroke="#6ee7a8" stroke-width="2.5" fill="none"/><path d="M223 180 L229 186" stroke="#6ee7a8" stroke-width="2.5" stroke-linecap="round"/><text x="240" y="180" fill="#ccddf2" font-size="15">roof invoice</text><path d="M210 210 V290" stroke="#35587e" stroke-width="2"/><circle cx="210" cy="222" r="6" fill="#6ee7a8"/><text x="228" y="227" fill="#ffffff" font-size="15" font-weight="700">2024</text><text x="276" y="227" fill="#ccddf2" font-size="15">Roof repaired · invoice</text><circle cx="210" cy="252" r="6" fill="#70afff"/><text x="228" y="257" fill="#ffffff" font-size="15" font-weight="700">2021</text><text x="276" y="257" fill="#ccddf2" font-size="15">Heat pump serviced</text><circle cx="210" cy="282" r="6" fill="#437bd2"/><text x="228" y="287" fill="#ffffff" font-size="15" font-weight="700">1998</text><text x="276" y="287" fill="#ccddf2" font-size="15">Paper deed scanned</text></g></svg>