<svg xmlns="http://www.w3.org/2000/svg" width="600" height="340" viewBox="0 0 600 340" role="img" aria-labelledby="title desc"><title id="title">hive</title><desc id="desc">Four agents in a chain: plan, code, review, test, with review sending fixes back to code.</desc><rect width="600" height="340" rx="20" fill="#071d41"/><g font-family="Arial,Helvetica,sans-serif"><text x="32" y="44" fill="#9acbff" font-size="14" letter-spacing="2.5">03 / AI AGENTS</text><text x="32" y="86" fill="#ffffff" font-size="32" font-weight="700">hive</text><text x="32" y="116" fill="#ccddf2" font-size="18">AI coding agents working as a team.</text><rect x="32" y="140" width="536" height="168" rx="14" fill="#102e56" stroke="#35587e"/><polygon points="138.6,234.0 104.0,254.0 69.4,234.0 69.4,194.0 104.0,174.0 138.6,194.0" fill="#194479" stroke="#437bd2" stroke-width="2"/><text x="104" y="220" fill="#ffffff" font-size="16" font-weight="700" text-anchor="middle">Plan</text><polygon points="269.6,234.0 235.0,254.0 200.4,234.0 200.4,194.0 235.0,174.0 269.6,194.0" fill="#194479" stroke="#70afff" stroke-width="2"/><text x="235" y="220" fill="#ffffff" font-size="16" font-weight="700" text-anchor="middle">Code</text><polygon points="400.6,234.0 366.0,254.0 331.4,234.0 331.4,194.0 366.0,174.0 400.6,194.0" fill="#194479" stroke="#ffc86b" stroke-width="2"/><text x="366" y="220" fill="#ffffff" font-size="16" font-weight="700" text-anchor="middle">Review</text><polygon points="531.6,234.0 497.0,254.0 462.4,234.0 462.4,194.0 497.0,174.0 531.6,194.0" fill="#194479" stroke="#6ee7a8" stroke-width="2"/><text x="497" y="220" fill="#ffffff" font-size="16" font-weight="700" text-anchor="middle">Test</text><path d="M148 214 H191 M183 208 L191 214 L183 220" stroke="#b8dcff" stroke-width="2.5" fill="none" stroke-linecap="round" stroke-linejoin="round"/><path d="M279 214 H322 M314 208 L322 214 L314 220" stroke="#b8dcff" stroke-width="2.5" fill="none" stroke-linecap="round" stroke-linejoin="round"/><path d="M410 214 H453 M445 208 L453 214 L445 220" stroke="#b8dcff" stroke-width="2.5" fill="none" stroke-linecap="round" stroke-linejoin="round"/><path d="M366 262 V282 H235 V264" stroke="#ffc86b" stroke-width="2" fill="none" stroke-dasharray="5 5"/><path d="M229 272 L235 262 L241 272" stroke="#ffc86b" stroke-width="2" fill="none"/><text x="300" y="299" fill="#ffc86b" font-size="13" text-anchor="middle">fix and re-check</text></g></svg>